HIERARCHY
ROOT Hips
{
	OFFSET 0.000000 0.000000 0.000000 
	CHANNELS 6 Xposition Yposition Zposition Yrotation Zrotation Xrotation 
	JOINT Lumbar
	{
		OFFSET 0.000000 0.000000 0.000000 
		CHANNELS 3 Zrotation Xrotation Yrotation
		JOINT Neck
		{
			OFFSET 0.000000 0.445665 0.000000 
			CHANNELS 3 Zrotation Xrotation Yrotation
			End Site
			{
				OFFSET 0.000000 0.227535 0.000000 
			}
		}
		JOINT RightShoulder
		{
			OFFSET 0.019635 0.377685 0.194865 
			CHANNELS 3 Zrotation Xrotation Yrotation
			JOINT RightElbow
			{
				OFFSET 0.000000 -0.243375 0.000000 
				CHANNELS 2 Zrotation Yrotation
				JOINT RightWrist
				{
					OFFSET 0.000000 -0.264825 0.000000 
					CHANNELS 2 Zrotation Xrotation
					End Site
					{
						OFFSET 0.006600 -0.176220 0.000990 
					}
				}
			}
		}
		JOINT LeftShoulder
		{
			OFFSET 0.019635 0.377685 -0.194865 
			CHANNELS 3 Zrotation Xrotation Yrotation
			JOINT LeftElbow
			{
				OFFSET 0.000000 -0.243375 0.000000 
				CHANNELS 2 Zrotation Yrotation
				JOINT LeftWrist
				{
					OFFSET 0.000000 -0.264825 0.000000 
					CHANNELS 2 Zrotation Xrotation
					End Site
					{
						OFFSET 0.006600 -0.176220 -0.000990 
					}
				}
			}
		}
	}
	JOINT RightHip
	{
		OFFSET 0.052140 -0.069960 0.075570 
		CHANNELS 3 Zrotation Xrotation Yrotation
		JOINT RightKnee
		{
			OFFSET 0.000000 -0.402270 0.000000 
			CHANNELS 1 Zrotation
			JOINT RightAnkle
			{
				OFFSET 0.000000 -0.404085 0.000000 
				CHANNELS 3 Zrotation Xrotation Yrotation
				End Site
				{
					OFFSET 0.204105 -0.089430 0.008415 
				}
			}
		}
	}
	JOINT LeftHip
	{
		OFFSET 0.052140 -0.069960 -0.075570 
		CHANNELS 3 Zrotation Xrotation Yrotation
		JOINT LeftKnee
		{
			OFFSET 0.000000 -0.402270 0.000000 
			CHANNELS 1 Zrotation
			JOINT LeftAnkle
			{
				OFFSET 0.000000 -0.404085 0.000000 
				CHANNELS 3 Zrotation Xrotation Yrotation
				End Site
				{
					OFFSET 0.204105 -0.089430 -0.008415 
				}
			}
		}
	}
}
MOTION
Frames: 35
Frame Time: 0.02
1e-05 0.95578 -0 139.10558 0 -3.56957 0.91688 6.49207 2.26856 -55.48834 -4.35857 -7.19216 52.39964 -6.14815 -8.57682 9.3695 82.55077 0.16354 -3.33897 49.36284 25.93694 -18.8888 15.41343 -81.05136 -3.90257 3.62101 -5.09253 8.83617 -1.51707 -6.38264 -9.76198 -2.65892 -8.27351 -0.0155 8.84208 9.63196 -13.65894 -4.50949 3.76447 12.41597
-0.00466 0.95602 -0.00093 138.84469 0 -3.58151 1.43116 6.39533 1.97554 -55.26634 -4.11034 -6.99282 52.34638 -6.37624 -8.57934 9.43857 82.47552 0.10555 -3.39455 49.31067 25.69234 -18.81744 15.38139 -81.00053 -3.90686 3.61106 -5.31528 8.70432 -1.30115 -6.31906 -9.8315 -2.68453 -8.26357 -1.05937 8.70923 11.05765 -12.16587 -4.75275 3.60168 11.08959
-0.00932 0.95625 -0.00186 138.58395 0 -3.5938 1.9429 6.29954 1.68389 -55.04361 -3.86291 -6.79377 52.29122 -6.6039 -8.57948 9.50754 82.40087 0.04851 -3.44974 49.25695 25.44762 -18.74477 15.34977 -80.94997 -3.91151 3.60157 -5.53672 8.57274 -1.08522 -6.25648 -9.90039 -2.70994 -8.25375 -2.09811 8.57598 12.47495 -10.68077 -4.99438 3.44025 9.77356
-0.01396 0.95648 -0.00275 138.32178 0 -3.6078 2.44925 6.20711 1.3954 -54.81679 -3.6174 -6.59445 52.22947 -6.83102 -8.56951 9.57726 82.32781 -0.00539 -3.50428 49.19814 25.20166 -18.66657 15.31971 -80.9001 -3.9179 3.59361 -5.7543 8.44186 -0.86746 -6.19834 -9.9674 -2.735 -8.24493 -3.1266 8.44039 13.87326 -9.21186 -5.23285 3.28296 8.48576
-0.01866 0.95674 -0.0038 138.06779 0 -3.613 2.9839 6.09748 1.09083 -54.61287 -3.36309 -6.39717 52.20446 -7.05974 -8.61235 9.64357 82.24624 -0.07603 -3.56272 49.16824 24.96427 -18.61817 15.28162 -80.8467 -3.91541 3.57727 -5.99136 8.30839 -0.65974 -6.11796 -10.04435 -2.76211 -8.23158 -4.20947 8.31788 15.373 -7.65579 -5.48931 3.10406 7.04815
-0.02325 0.95692 -0.00452 137.79637 0 -3.63662 3.4583 6.02395 0.8201 -54.35989 -3.12668 -6.19534 52.10053 -7.28569 -8.54395 9.71662 82.18279 -0.11111 -3.61254 49.07593 24.70763 -18.50643 15.26037 -80.80076 -3.9315 3.57885 -6.18765 8.17977 -0.43076 -6.08384 -10.1002 -2.78472 -8.22731 -5.1762 8.16737 16.65613 -6.2866 -5.70661 2.97083 5.92899
-0.02757 0.95689 -0.00434 137.47044 0 -3.71526 3.77184 6.05523 0.64256 -53.9657 -2.94297 -5.97838 51.77769 -7.50336 -8.15121 9.81457 82.16932 -0.04611 -3.64158 48.81278 24.39971 -18.21317 15.28817 -80.7754 -4.00267 3.63017 -6.26674 8.06805 -0.13629 -6.18859 -10.09718 -2.79638 -8.25346 -5.83745 7.93626 17.35979 -5.40671 -5.82456 2.96653 5.68961
-0.03178 0.95679 -0.00382 137.12773 0 -3.81191 4.02362 6.12217 0.49893 -53.52231 -2.77649 -5.75689 51.37466 -7.7189 -7.64926 9.91827 82.17418 0.05447 -3.66136 48.48578 24.07142 -17.8568 15.33235 -80.75761 -4.09182 3.69948 -6.30541 7.96052 0.17891 -6.33833 -10.073 -2.80327 -8.28802 -6.37911 7.6773 17.84214 -4.7199 -5.9013 3.00793 5.7716
-0.03603 0.95672 -0.00345 136.79643 0 -3.89757 4.30075 6.1694 0.33984 -53.10498 -2.59979 -5.53906 51.00897 -7.93571 -7.20744 10.0154 82.17066 0.13767 -3.68349 48.18698 23.75113 -17.53329 15.36767 -80.73625 -4.17063 3.76061 -6.36588 7.84861 0.48039 -6.46008 -10.0588 -2.81135 -8.31504 -6.96677 7.43285 18.41444 -3.96052 -5.99157 3.02644 5.70583
-0.04034 0.95664 -0.0031 136.44918 0 -3.99465 4.59031 6.23098 0.18138 -52.67322 -2.43331 -5.31515 50.64091 -8.14995 -6.71982 10.12925 82.16724 0.22614 -3.71359 47.89272 23.43718 -17.1924 15.40977 -80.71519 -4.25929 3.82223 -6.41259 7.74699 0.79926 -6.61272 -10.04286 -2.82339 -8.35692 -7.59072 7.18035 19.0314 -3.13536 -6.10452 3.05343 5.64653
-0.04449 0.95656 -0.00263 136.13118 0 -4.07274 4.83802 6.27168 0.02918 -52.25844 -2.2495 -5.10204 50.257 -8.37062 -6.30359 10.2096 82.16812 0.3119 -3.72472 47.57252 23.10394 -16.87242 15.44063 -80.69562 -4.3308 3.8865 -6.47743 7.62517 1.08771 -6.71289 -10.02577 -2.82625 -8.37089 -8.1092 6.93829 19.50283 -2.49542 -6.15947 3.07419 5.65114
-0.04823 0.95648 -0.00197 135.89749 0 -4.08964 4.99619 6.24135 -0.10989 -51.91423 -2.01481 -4.92654 49.8637 -8.59612 -6.09397 10.19657 82.17488 0.38316 -3.68726 47.20767 22.73342 -16.62793 15.44479 -80.67554 -4.35862 3.95878 -6.60987 7.44432 1.2804 -6.64753 -10.00868 -2.8033 -8.29698 -8.37915 6.72911 19.62698 -2.29826 -6.0732 3.06148 5.74411
-0.05183 0.95639 -0.00119 135.6936 0 -4.08768 5.11205 6.18962 -0.24443 -51.58665 -1.76191 -4.76088 49.45453 -8.83064 -5.96276 10.14963 82.18559 0.4502 -3.63083 46.81693 22.34239 -16.40621 15.43535 -80.65716 -4.3673 4.03208 -6.76026 7.24345 1.44336 -6.52988 -9.99158 -2.77155 -8.19641 -8.54484 6.53182 19.61244 -2.28425 -5.92859 3.04184 5.89202
-0.05549 0.95631 -0.00042 135.47684 0 -4.09715 5.24054 6.1508 -0.38398 -51.24378 -1.51649 -4.58622 49.0428 -9.06987 -5.80751 10.1178 82.19552 0.51805 -3.58199 46.43043 21.95321 -16.17254 15.42685 -80.63994 -4.37917 4.10167 -6.89773 7.05317 1.62387 -6.44214 -9.97575 -2.74494 -8.11371 -8.74913 6.33095 19.66095 -2.20112 -5.80452 3.02872 6.02103
-0.05913 0.95622 0.00017 135.258 0 -4.09499 5.39601 6.09991 -0.51061 -50.93173 -1.2748 -4.43023 48.66915 -9.27193 -5.60123 10.08713 82.20193 0.59169 -3.53684 46.07295 21.59383 -15.94342 15.44172 -80.61514 -4.41395 4.1859 -7.05495 6.8566 1.78661 -6.32893 -9.95369 -2.71347 -8.0067 -8.98529 6.12171 19.70099 -2.06744 -5.70311 3.00302 6.13578
-0.0628 0.95615 0.00116 135.04913 0 -4.11257 5.48445 6.06841 -0.66261 -50.56024 -1.02108 -4.23812 48.21394 -9.55348 -5.51912 10.04631 82.21622 0.65195 -3.48003 45.65038 21.16908 -15.71108 15.40365 -80.60602 -4.39744 4.23926 -7.17449 6.6685 1.98085 -6.25713 -9.94509 -2.68994 -7.94427 -9.13318 5.93272 19.72944 -2.07715 -5.54262 3.0012 6.28891
-0.06664 0.95615 0.00317 134.87451 0 -4.18728 5.4114 6.09696 -0.89383 -50.01912 -0.73612 -3.94035 47.53392 -10.05318 -5.77958 9.98251 82.25252 0.67462 -3.39253 45.04888 20.55769 -15.464 15.22966 -80.64328 -4.23351 4.21044 -7.19638 6.50763 2.25394 -6.30163 -9.97186 -2.69178 -8.00832 -9.05181 5.80037 19.75371 -2.46226 -5.2211 3.06758 6.5351
-0.07052 0.95619 0.00559 134.70619 0 -4.28284 5.26989 6.14514 -1.14953 -49.41809 -0.44 -3.60644 46.77355 -10.63245 -6.15902 9.91043 82.29625 0.68399 -3.29472 44.38418 19.88346 -15.21299 15.00155 -80.69554 -4.02043 4.14996 -7.17746 6.35639 2.56274 -6.39204 -10.01256 -2.70168 -8.1188 -8.88762 5.6876 19.77338 -2.98021 -4.8445 3.1579 6.81652
-0.07436 0.95621 0.00784 134.52614 0 -4.37002 5.15172 6.18353 -1.38876 -48.84565 -0.15065 -3.29151 46.05249 -11.1747 -6.47254 9.84405 82.33576 0.70048 -3.2036 43.75231 19.24535 -14.96464 14.79349 -80.73865 -3.83666 4.10148 -7.17092 6.20115 2.86491 -6.46751 -10.04822 -2.70704 -8.20993 -8.76954 5.5635 19.80028 -3.41997 -4.50148 3.23666 7.07957
-0.07827 0.95622 0.01 134.38533 0 -4.45172 5.06603 6.22562 -1.64986 -48.26805 0.1462 -2.96658 45.31852 -11.72076 -6.84003 9.7676 82.37917 0.71271 -3.10282 43.10195 18.57439 -14.7145 14.60386 -80.79181 -3.62298 4.06245 -7.19287 6.04274 3.12464 -6.51359 -10.07861 -2.71576 -8.29237 -8.6131 5.44956 19.80043 -3.93995 -4.12082 3.3181 7.35382
-0.08206 0.95626 0.01245 134.16291 0 -4.55029 4.89549 6.26398 -1.87192 -47.6867 0.43021 -2.6532 44.59325 -12.27782 -7.12077 9.71147 82.41595 0.73018 -3.02063 42.47568 17.95748 -14.46543 14.36356 -80.82739 -3.45995 3.99709 -7.1432 5.89458 3.48272 -6.63568 -10.12306 -2.71953 -8.40475 -8.51688 5.31959 19.85712 -4.32387 -3.80559 3.39972 7.61345
-0.08556 0.95641 0.01561 133.72158 0 -4.6881 4.52074 6.29536 -1.97464 -47.11058 0.6728 -2.38514 43.90636 -12.84429 -7.14569 9.70606 82.43454 0.76975 -2.98657 41.92989 17.50297 -14.23208 13.99324 -80.81226 -3.45077 3.85906 -6.92492 5.76375 4.09487 -6.93089 -10.2046 -2.70759 -8.58465 -8.61971 5.13517 20.07171 -4.28247 -3.69039 3.47605 7.814
-0.08891 0.9566 0.01905 133.19602 0 -4.84271 4.06081 6.32069 -2.03818 -46.53283 0.90264 -2.12898 43.23231 -13.4192 -7.07622 9.7229 82.44588 0.81424 -2.97269 41.41131 17.10563 -13.99732 13.57452 -80.77864 -3.49399 3.69704 -6.63169 5.64504 4.80674 -7.30717 -10.29934 -2.69045 -8.79394 -8.78421 4.93503 20.34418 -4.10191 -3.64204 3.55177 8.00011
-0.09228 0.95677 0.02238 132.70391 0 -4.99113 3.63123 6.34386 -2.12344 -45.95472 1.14026 -1.86439 42.55567 -13.99131 -7.04145 9.73465 82.45919 0.85359 -2.95345 40.8809 16.6836 -13.75577 13.18014 -80.75246 -3.51203 3.55109 -6.36092 5.526 5.47861 -7.66189 -10.38713 -2.67575 -8.99235 -8.91283 4.74542 20.59017 -3.99522 -3.55961 3.62771 8.19922
-0.09587 0.95694 0.02566 132.23339 0 -5.134 3.23407 6.38934 -2.1934 -45.37783 1.36967 -1.61154 41.86159 -14.56228 -7.04633 9.72505 82.47814 0.90471 -2.91789 40.34444 16.25358 -13.54678 12.77378 -80.73081 -3.53414 3.38234 -6.14029 5.38369 6.12846 -7.94902 -10.48004 -2.66095 -9.18178 -9.07168 4.54168 20.83576 -3.84804 -3.4912 3.70461 8.37271
-0.09896 0.95711 0.02911 131.6966 0 -5.29236 2.75062 6.38553 -2.28511 -44.80048 1.61328 -1.33721 41.20909 -15.13601 -6.94357 9.76509 82.48378 0.93268 -2.92109 39.8298 15.855 -13.26805 12.38184 -80.6952 -3.56081 3.25565 -5.79471 5.29477 6.84838 -8.40139 -10.56447 -2.64507 -9.39647 -9.18325 4.36405 21.09711 -3.75087 -3.40974 3.77919 8.59529
-0.10073 0.95733 0.03301 131.00808 0 -5.48771 2.0462 6.25695 -2.45082 -44.20803 1.89675 -1.00408 40.65841 -15.71967 -6.57615 9.93817 82.45231 0.89573 -3.02737 39.35269 15.52615 -12.80986 12.03938 -80.62496 -3.58818 3.25229 -5.15122 5.33172 7.72692 -9.23877 -10.62874 -2.62713 -9.6711 -9.15088 4.25661 21.37811 -3.81992 -3.28046 3.84613 8.96005
-0.10199 0.95755 0.03705 130.25417 0 -5.69839 1.25962 6.07728 -2.63902 -43.61815 2.19537 -0.64869 40.1511 -16.30444 -6.10197 10.15974 82.4081 0.8356 -3.17143 38.89991 15.22781 -12.27837 11.71365 -80.54136 -3.61845 3.29192 -4.37999 5.42531 8.67292 -10.24775 -10.68265 -2.60837 -9.96975 -9.06933 4.17707 21.67451 -3.944 -3.13544 3.91079 9.37389
-0.10345 0.95776 0.04101 129.52261 0 -5.90288 0.51241 5.91409 -2.81373 -43.03666 2.48856 -0.30116 39.63114 -16.88563 -5.669 10.35881 82.37102 0.78567 -3.29809 38.44687 14.91792 -11.77312 11.38209 -80.4642 -3.64702 3.31124 -3.64784 5.50526 9.59654 -11.21333 -10.7371 -2.59009 -10.25974 -9.00911 4.08831 21.97066 -4.04674 -2.99457 3.97743 9.76307
-0.10503 0.95801 0.0451 128.81745 0 -6.10422 -0.24936 5.77809 -3.00018 -42.41458 2.77501 0.03731 39.08288 -17.4808 -5.26089 10.56251 82.32783 0.73619 -3.42805 37.94921 14.60041 -11.301 11.0418 -80.38486 -3.67888 3.33327 -2.99074 5.53498 10.4945 -12.04104 -10.81001 -2.57092 -10.54396 -8.95361 3.98399 22.2416 -4.13133 -2.86758 4.04051 10.16188
-0.10625 0.95817 0.04891 128.04508 0 -6.31611 -0.9955 5.57474 -3.16894 -41.87788 3.07945 0.39901 38.60234 -18.04619 -4.78036 10.7654 82.2947 0.68161 -3.55783 37.54985 14.30505 -10.73832 10.72372 -80.30712 -3.70404 3.35983 -2.151 5.68208 11.45338 -13.18898 -10.84135 -2.55383 -10.84212 -8.87792 3.9194 22.56634 -4.26595 -2.70847 4.10992 10.5523
-0.10649 0.95809 0.05207 127.0853 0 -6.54832 -1.70932 5.18663 -3.27554 -41.57385 3.42811 0.82847 38.3089 -18.53555 -4.09729 10.97457 82.29016 0.60651 -3.69472 37.41608 14.06537 -9.98117 10.46876 -80.23717 -3.70828 3.39085 -0.81366 6.14353 12.62589 -15.23205 -10.76477 -2.53949 -11.20241 -8.74118 3.95325 23.04995 -4.54704 -2.45264 4.202 10.90813
-0.10639 0.95792 0.0549 126.06446 0 -6.79137 -2.39821 4.73483 -3.36526 -41.3555 3.79459 1.27868 38.07926 -18.99353 -3.35165 11.17728 82.29669 0.52926 -3.82678 37.37984 13.84643 -9.12985 10.23512 -80.16941 -3.70545 3.42422 0.69729 6.7199 13.84564 -17.57851 -10.64607 -2.52785 -11.57084 -8.58934 4.02683 23.58443 -4.87226 -2.16711 4.29958 11.25308
-0.1065 0.95781 0.05777 125.08302 0 -7.03283 -3.07803 4.31937 -3.46798 -41.10036 4.15431 1.71384 37.81437 -19.46172 -2.65293 11.36957 82.29966 0.46097 -3.95005 37.29928 13.61623 -8.2951 9.98762 -80.10059 -3.7071 3.45554 2.11333 7.24148 15.00221 -19.75443 -10.54342 -2.51715 -11.91525 -8.45478 4.08545 24.08586 -5.16491 -1.90242 4.39172 11.60362
-0.10636 0.95763 0.06113 124.04779 0 -7.26121 -3.84761 3.8701 -3.54883 -40.83885 4.50952 2.1745 37.58072 -19.94749 -1.86909 11.62023 82.29579 0.35838 -4.12147 37.22123 13.39425 -7.56252 9.75665 -80.03135 -3.70473 3.49413 3.60484 7.77766 16.33594 -22.08536 -10.45247 -2.49744 -12.34381 -8.27224 4.13279 24.62906 -5.51611 -1.60547 4.49657 11.95611
